<svg xmlns="http://www.w3.org/2000/svg" width="24" height="24" fill="none" viewBox="0 0 32 32" color="#ffffff" opacity="0.45"><path fill="#0F1014" fill-rule="evenodd" d="M27.972 2H4.111C2.969 2 2 2.903 2 4.015v23.969C2 29.097 2.636 30 3.777 30H27.64c1.14 0 2.36-.903 2.36-2.016V4.014A2.007 2.007 0 0 0 27.972 2ZM12.667 12.667h3.769v1.921h.041c.575-1.036 2.272-2.088 4.371-2.088 4.028 0 5.152 2.139 5.152 6.1V26h-4v-6.67c0-1.774-.708-3.33-2.364-3.33-2.01 0-2.97 1.361-2.97 3.596V26h-4V12.667ZM6 26h4V12.667H6V26Zm4.5-18a2.5 2.5 0 1 1-5 .002 2.5 2.5 0 0 1 5-.002Z" clip-rule="evenodd"></path></svg>