<svg width="139" height="42" viewBox="0 0 139 42" fill="none" xmlns="http://www.w3.org/2000/svg"><path d="M134.204 0.837301H128.462L121.982 15.644H123.871L128.839 4.29922C129.759 2.19677 131.869 0.832031 134.204 0.832031" fill="#FC9AB4"></path><path d="M134.204 0.839844C131.868 0.839844 129.759 2.20459 128.838 4.30703L123.871 15.6518H132.514L138.994 0.845113H134.204V0.839844Z" fill="#FF3333"></path><path d="M6.15673 15.6484C2.76084 15.6484 0 18.3516 0 21.6765V30.4604H2.45946V21.6765C2.45946 19.6847 4.11704 18.0618 6.15135 18.0618C8.18565 18.0618 9.84323 19.6847 9.84323 21.6765V30.4604H12.3027V21.6765C12.3027 18.3516 9.54185 15.6484 6.14597 15.6484" fill="#1B1B1E"></path><path d="M45.0191 21.6751V30.459H47.4785V21.6751C47.4785 19.6833 49.1361 18.0604 51.1704 18.0604H52.4028V15.6523H51.1704C47.7745 15.6523 45.0137 18.3555 45.0137 21.6804" fill="#1B1B1E"></path><path d="M39.396 24.431C39.396 26.4227 37.7384 28.0457 35.7041 28.0457C33.6698 28.0457 32.0122 26.4227 32.0122 24.431V15.6523H29.5527V24.431C29.5527 27.7559 32.3136 30.459 35.7095 30.459C39.1054 30.459 41.8662 27.7559 41.8662 24.431V15.6523H39.4067V24.431H39.396Z" fill="#1B1B1E"></path><path d="M59.6196 15.6484C56.2237 15.6484 53.4629 18.3516 53.4629 21.6765V24.4323C53.4629 27.7572 56.2237 30.4604 59.6196 30.4604C63.0155 30.4604 65.7764 27.7572 65.7764 24.4323V21.6765C65.7764 18.3516 63.0155 15.6484 59.6196 15.6484ZM63.3115 24.4323C63.3115 26.4241 61.6539 28.047 59.6196 28.047C57.5853 28.047 55.9277 26.4241 55.9277 24.4323V21.6765C55.9277 19.6847 57.5853 18.0618 59.6196 18.0618C61.6539 18.0618 63.3115 19.6847 63.3115 21.6765V24.4323Z" fill="#1B1B1E"></path><path d="M20.9302 15.6459C17.5343 15.6459 14.7734 18.349 14.7734 21.6739V24.4298C14.7734 27.7547 17.5343 30.4578 20.9302 30.4578C24.3261 30.4578 27.0869 27.7547 27.0869 24.4298H24.6274C24.6274 26.4216 22.9699 28.0445 20.9355 28.0445C19.208 28.0445 17.7549 26.88 17.3513 25.3045L27.0923 22.5803V21.6687C27.0923 18.3438 24.3314 15.6406 20.9355 15.6406M17.2329 22.8332V21.6739C17.2329 19.6822 18.8905 18.0592 20.9248 18.0592C22.6523 18.0592 24.1054 19.2237 24.509 20.7992L17.2329 22.8332Z" fill="#1B1B1E"></path><path d="M104.288 15.6459C100.892 15.6459 98.1309 18.349 98.1309 21.6739V24.4298C98.1309 27.7547 100.892 30.4578 104.288 30.4578C107.683 30.4578 110.444 27.7547 110.444 24.4298H107.985C107.985 26.4216 106.327 28.0445 104.293 28.0445C102.565 28.0445 101.112 26.88 100.709 25.3045L110.444 22.5803V21.6687C110.444 18.3438 107.683 15.6406 104.288 15.6406M100.596 22.8332V21.6739C100.596 19.6822 102.253 18.0592 104.288 18.0592C106.015 18.0592 107.468 19.2237 107.872 20.7992L100.596 22.8332Z" fill="#1B1B1E"></path><path d="M74.7412 15.6459C73.3527 15.6459 72.0772 16.1043 71.0493 16.8631V15.6459H68.5898V35.274H71.0493V29.2354C72.0772 29.9941 73.3581 30.4526 74.7412 30.4526C78.1371 30.4526 80.8979 27.7494 80.8979 24.4245V21.6687C80.8979 18.3438 78.1371 15.6406 74.7412 15.6406M78.4331 24.4298C78.4331 26.4216 76.7755 28.0445 74.7412 28.0445C72.7069 28.0445 71.0493 26.4216 71.0493 24.4298V21.6739C71.0493 19.6822 72.7069 18.0592 74.7412 18.0592C76.7755 18.0592 78.4331 19.6822 78.4331 21.6739V24.4298Z" fill="#1B1B1E"></path><path d="M89.5146 15.6456C88.1261 15.6456 86.8507 16.104 85.8227 16.8628V10.8242H83.3633V30.4523H85.8227V21.6684C85.8227 19.6766 87.4803 18.0537 89.5146 18.0537C91.5489 18.0537 93.2065 19.6766 93.2065 21.6684V30.4523H95.666V21.6684C95.666 18.3435 92.9051 15.6403 89.5093 15.6403" fill="#1B1B1E"></path><path d="M115.719 24.4301V18.0596H119.589L120.643 15.6515H115.719V13.5859H113.254V15.6515H111.145V18.0596H113.254V24.4301C113.254 27.755 116.015 30.4582 119.411 30.4582H120.643V28.0501H119.411C117.377 28.0501 115.719 26.4272 115.719 24.4354" fill="#1B1B1E"></path></svg>