<svg xmlns="http://www.w3.org/2000/svg" width="24" height="24" viewBox="0 0 32 32" fill="none" color="#ffffff" opacity="0.45"><path d="M5.32026 8.89594C5.35505 8.52484 5.22398 8.15805 4.96732 7.90829L2.35294 4.50794V4H10.4706L16.7451 18.8571L22.2614 4H30V4.50794L27.7647 6.82187C27.572 6.98046 27.4764 7.24113 27.5163 7.49912V24.5009C27.4764 24.7589 27.572 25.0195 27.7647 25.1781L29.9477 27.4921V28H18.9673V27.4921L21.2288 25.1217C21.451 24.8818 21.451 24.8113 21.451 24.4444V10.7019L15.1634 27.9436H14.3137L6.99346 10.7019V22.2575C6.93243 22.7433 7.08188 23.2324 7.39869 23.5838L10.3399 27.4356V27.9436H2V27.4356L4.94118 23.5838C5.25569 23.2319 5.39642 22.7395 5.32026 22.2575V8.89594Z" fill="#1D1D1F"></path></svg>