<svg xmlns="http://www.w3.org/2000/svg" width="24" height="24" fill="none" viewBox="0 0 24 24" color="#ffffff" opacity="0.45"><path fill="#1D1D1F" fill-rule="evenodd" d="M20.092 5.064a2.61 2.61 0 0 1 1.842 1.841c.435 1.624.435 5.013.435 5.013s0 3.389-.435 5.013a2.609 2.609 0 0 1-1.841 1.84c-1.625.436-8.137.436-8.137.436s-6.512 0-8.136-.435a2.608 2.608 0 0 1-1.842-1.841c-.435-1.624-.435-5.013-.435-5.013s0-3.389.435-5.013a2.608 2.608 0 0 1 1.841-1.84c1.624-.436 8.137-.436 8.137-.436s6.512 0 8.136.435Zm-4.808 6.854-5.411 3.124V8.794l5.41 3.124Z" clip-rule="evenodd"></path></svg>